<svg width="280" height="280" viewBox="0 0 280 280" fill="none" xmlns="http://www.w3.org/2000/svg">
<path d="M129.016 54.2006C129.016 54.2006 120.31 99.0514 70.2484 100.823C20.187 102.595 6.48781 174.804 57.3082 188.216C108.129 201.628 83.0926 236.339 116.543 243.37C154.562 251.36 155.034 195.114 181.471 194.209C239.82 192.214 270.014 165.491 248.913 143.817C211.872 105.77 192.789 111.903 194.084 81.4977C195.38 51.0926 140.567 17.5607 129.016 54.2006Z" fill="#F3F4F6"/>
<path d="M186.425 86.5009L67.5876 111.027C63.8014 111.808 61.3655 115.511 62.1469 119.297L77.4534 193.463C78.2348 197.249 81.9375 199.685 85.7237 198.904L204.561 174.378C208.347 173.597 210.783 169.894 210.002 166.108L194.695 91.9416C193.914 88.1554 190.211 85.7195 186.425 86.5009Z" fill="#9DA4AE"/>
<path d="M182.937 95.4055L169.25 98.2302C166.979 98.699 165.517 100.921 165.986 103.192L168.811 116.879C169.279 119.151 171.501 120.612 173.773 120.143L187.459 117.319C189.731 116.85 191.193 114.628 190.724 112.357L187.899 98.6699C187.43 96.3982 185.209 94.9367 182.937 95.4055Z" fill="white"/>
<path d="M128.156 153.178L81.9753 162.709C81.8238 162.74 81.7264 162.888 81.7576 163.04L83.1548 169.81C83.1861 169.961 83.3342 170.059 83.4856 170.027L129.666 160.497C129.818 160.465 129.915 160.317 129.884 160.166L128.487 153.396C128.455 153.244 128.307 153.147 128.156 153.178Z" fill="white"/>
<path d="M150.828 163.232L84.8915 176.84C84.7401 176.871 84.6426 177.019 84.6739 177.171L86.0711 183.94C86.1023 184.092 86.2504 184.189 86.4019 184.158L152.339 170.55C152.49 170.519 152.587 170.371 152.556 170.219L151.159 163.45C151.128 163.298 150.98 163.201 150.828 163.232Z" fill="white"/>
<path d="M208.291 193.613C219.303 193.613 228.231 184.685 228.231 173.673C228.231 162.66 219.303 153.733 208.291 153.733C197.278 153.733 188.351 162.66 188.351 173.673C188.351 184.685 197.278 193.613 208.291 193.613Z" fill="#D2D6DB" stroke="white" stroke-width="15" stroke-miterlimit="10"/>
<path d="M215.973 172.003H210.294C210.25 172.003 210.207 171.994 210.166 171.978C210.126 171.961 210.089 171.936 210.058 171.905C210.027 171.874 210.002 171.837 209.986 171.797C209.969 171.756 209.96 171.713 209.96 171.669V165.991C209.96 165.548 209.784 165.124 209.471 164.81C209.158 164.497 208.733 164.321 208.29 164.321C207.847 164.321 207.423 164.497 207.109 164.81C206.796 165.124 206.62 165.548 206.62 165.991V171.669C206.62 171.713 206.612 171.756 206.595 171.797C206.578 171.837 206.553 171.874 206.522 171.905C206.491 171.936 206.455 171.961 206.414 171.978C206.374 171.994 206.33 172.003 206.286 172.003H200.609C200.169 172.007 199.748 172.185 199.438 172.497C199.128 172.81 198.954 173.233 198.954 173.673C198.954 174.113 199.128 174.536 199.438 174.848C199.748 175.161 200.169 175.339 200.609 175.343H206.287C206.375 175.343 206.46 175.378 206.523 175.441C206.586 175.503 206.621 175.588 206.621 175.677V181.355C206.621 181.798 206.797 182.222 207.11 182.536C207.423 182.849 207.848 183.025 208.291 183.025C208.734 183.025 209.158 182.849 209.472 182.536C209.785 182.222 209.961 181.798 209.961 181.355V175.677C209.961 175.588 209.996 175.503 210.059 175.441C210.121 175.378 210.206 175.343 210.295 175.343H215.973C216.413 175.339 216.834 175.161 217.144 174.848C217.453 174.536 217.627 174.113 217.627 173.673C217.627 173.233 217.453 172.81 217.144 172.497C216.834 172.185 216.413 172.007 215.973 172.003Z" fill="white"/>
</svg>
