<svg width="280" height="280" viewBox="0 0 280 280" fill="none" xmlns="http://www.w3.org/2000/svg">
<path d="M101.791 242.485C116.648 251.44 127.247 247.722 131.304 240.542C139.151 226.655 165.242 198.258 206.587 188.66C261.348 175.948 249.912 142.196 216.248 124.484C182.585 106.773 157.414 82.2651 161.224 55.6176C165.034 28.9702 127.288 19.7839 110.502 71.0447C99.6545 104.171 80.2151 113.046 67.819 115.179C56.1358 117.19 43.3559 119.713 37.1238 129.797C29.5616 142.033 32.2005 154.41 63.8619 162.9C108.729 174.93 68.4911 222.413 101.791 242.485Z" fill="#E5E7EB"/>
<path d="M63.1905 184.424C63.8193 184.064 70.9156 181.06 106.219 197.518C106.116 197.658 106.072 197.724 106.072 197.724C106.072 197.724 69.3711 210.084 62.1803 194.857C60.033 190.324 60.6483 187.203 63.1292 184.459L63.1905 184.424Z" fill="#4D5761"/>
<path d="M181.847 190.652C174.177 197.1 162.149 201.78 150.543 195.557C152.377 194.385 154.271 193.178 156.203 191.929C167.858 184.44 178.125 189.451 181.847 190.652Z" fill="#4D5761"/>
<path d="M195.585 111.349C203.421 176.6 184.799 188.443 182.726 190.242C182.125 190.763 181.882 190.725 180.975 190.491L180.959 190.5C177.118 189.482 167.859 184.44 156.203 191.928C154.271 193.176 152.376 194.384 150.542 195.555C138.652 203.096 129.05 208.411 122.133 205.326C116.265 202.333 110.975 199.743 106.219 197.518C70.9157 181.059 63.8194 184.064 63.1907 184.424C63.9202 184.026 70.6126 180.317 79.6239 173.793C79.6545 173.775 79.6852 173.758 79.6918 173.734C91.7365 165.005 107.867 151.249 119.461 133.554C127.354 121.521 135.076 91.0168 149.975 85.0315C180.594 73.6089 194.314 98.076 195.585 111.349Z" fill="#9DA4AE"/>
<path d="M161.728 110.204C162.679 107.694 162.586 105.333 161.521 104.93C160.457 104.526 158.823 106.234 157.872 108.744C156.922 111.254 157.015 113.615 158.079 114.018C159.144 114.421 160.778 112.714 161.728 110.204Z" fill="white"/>
<path d="M181.224 113.406C181.898 110.808 181.551 108.471 180.448 108.185C179.346 107.899 177.907 109.774 177.233 112.371C176.56 114.969 176.907 117.307 178.009 117.593C179.111 117.878 180.551 116.004 181.224 113.406Z" fill="white"/>
<path d="M169.357 122.944C169.197 122.944 169.042 122.89 168.918 122.789C168.794 122.689 168.708 122.549 168.674 122.393C168.549 121.828 167.994 120.156 167.113 119.908C166.233 119.659 164.506 120.624 163.807 121.13C163.657 121.239 163.47 121.284 163.286 121.254C163.103 121.225 162.939 121.124 162.83 120.974C162.721 120.823 162.676 120.636 162.706 120.452C162.735 120.269 162.836 120.105 162.986 119.996C163.262 119.797 165.728 118.062 167.493 118.56C169.335 119.08 169.975 121.788 170.041 122.095C170.064 122.198 170.063 122.304 170.039 122.405C170.015 122.507 169.968 122.602 169.902 122.684C169.837 122.765 169.754 122.831 169.659 122.876C169.565 122.921 169.461 122.945 169.357 122.944H169.357Z" fill="white"/>
</svg>
